<svg width="627" height="200" viewBox="0 0 627 200" fill="none" xmlns="http://www.w3.org/2000/svg">
<rect width="627" height="200" fill="#F5F5F5"/>
<rect width="627" height="200" fill="white"/>
<rect x="433" y="58" width="142" height="83" rx="10" fill="#FF9800"/>
<path d="M209.793 121V77.3636H227.009C230.318 77.3636 233.138 77.9957 235.467 79.2599C237.797 80.5099 239.572 82.25 240.794 84.4801C242.03 86.696 242.648 89.2528 242.648 92.1506C242.648 95.0483 242.023 97.6051 240.773 99.821C239.523 102.037 237.712 103.763 235.339 104.999C232.982 106.234 230.126 106.852 226.774 106.852H215.801V99.4588H225.283C227.058 99.4588 228.521 99.1534 229.672 98.5426C230.837 97.9176 231.703 97.0582 232.271 95.9645C232.854 94.8565 233.145 93.5852 233.145 92.1506C233.145 90.7017 232.854 89.4375 232.271 88.358C231.703 87.2642 230.837 86.419 229.672 85.8224C228.507 85.2116 227.03 84.9062 225.24 84.9062H219.018V121H209.793ZM248.47 121V88.2727H257.27V93.983H257.61C258.207 91.9517 259.208 90.4176 260.615 89.3807C262.021 88.3295 263.64 87.804 265.473 87.804C265.927 87.804 266.417 87.8324 266.943 87.8892C267.468 87.946 267.93 88.0241 268.328 88.1236V96.1776C267.902 96.0497 267.312 95.9361 266.559 95.8366C265.806 95.7372 265.118 95.6875 264.493 95.6875C263.157 95.6875 261.964 95.9787 260.913 96.5611C259.876 97.1293 259.052 97.9247 258.441 98.9474C257.845 99.9702 257.547 101.149 257.547 102.484V121H248.47ZM286.284 121.639C282.974 121.639 280.112 120.936 277.697 119.53C275.297 118.109 273.443 116.135 272.136 113.607C270.83 111.064 270.176 108.116 270.176 104.764C270.176 101.384 270.83 98.429 272.136 95.9006C273.443 93.358 275.297 91.3835 277.697 89.9773C280.112 88.5568 282.974 87.8466 286.284 87.8466C289.594 87.8466 292.449 88.5568 294.849 89.9773C297.264 91.3835 299.125 93.358 300.432 95.9006C301.739 98.429 302.392 101.384 302.392 104.764C302.392 108.116 301.739 111.064 300.432 113.607C299.125 116.135 297.264 118.109 294.849 119.53C292.449 120.936 289.594 121.639 286.284 121.639ZM286.327 114.608C287.832 114.608 289.089 114.182 290.098 113.33C291.107 112.463 291.866 111.284 292.378 109.793C292.903 108.301 293.166 106.604 293.166 104.7C293.166 102.797 292.903 101.099 292.378 99.608C291.866 98.1165 291.107 96.9375 290.098 96.071C289.089 95.2045 287.832 94.7713 286.327 94.7713C284.807 94.7713 283.528 95.2045 282.491 96.071C281.469 96.9375 280.695 98.1165 280.169 99.608C279.658 101.099 279.402 102.797 279.402 104.7C279.402 106.604 279.658 108.301 280.169 109.793C280.695 111.284 281.469 112.463 282.491 113.33C283.528 114.182 284.807 114.608 286.327 114.608ZM308.294 121V88.2727H316.945V94.0469H317.328C318.01 92.1293 319.146 90.6165 320.737 89.5085C322.328 88.4006 324.232 87.8466 326.447 87.8466C328.692 87.8466 330.602 88.4077 332.179 89.5298C333.756 90.6378 334.807 92.1435 335.332 94.0469H335.673C336.341 92.1719 337.548 90.6733 339.295 89.5511C341.057 88.4148 343.138 87.8466 345.538 87.8466C348.592 87.8466 351.071 88.8196 352.974 90.7656C354.892 92.6974 355.851 95.4389 355.851 98.9901V121H346.795V100.78C346.795 98.9616 346.313 97.598 345.347 96.6889C344.381 95.7798 343.173 95.3253 341.724 95.3253C340.077 95.3253 338.791 95.8509 337.868 96.902C336.945 97.9389 336.483 99.3097 336.483 101.014V121H327.683V100.588C327.683 98.983 327.222 97.7045 326.298 96.7528C325.389 95.8011 324.189 95.3253 322.697 95.3253C321.689 95.3253 320.78 95.581 319.97 96.0923C319.175 96.5895 318.543 97.2926 318.074 98.2017C317.605 99.0966 317.371 100.148 317.371 101.355V121H308.294ZM363.021 133.273V88.2727H371.969V93.7699H372.374C372.772 92.8892 373.347 91.9943 374.1 91.0852C374.867 90.1619 375.862 89.3949 377.083 88.7841C378.319 88.1591 379.853 87.8466 381.685 87.8466C384.072 87.8466 386.273 88.4716 388.29 89.7216C390.308 90.9574 391.92 92.8253 393.127 95.3253C394.335 97.8111 394.938 100.929 394.938 104.679C394.938 108.33 394.349 111.412 393.17 113.926C392.005 116.426 390.414 118.322 388.397 119.615C386.394 120.893 384.15 121.533 381.664 121.533C379.903 121.533 378.404 121.241 377.168 120.659C375.947 120.077 374.945 119.345 374.164 118.464C373.383 117.57 372.786 116.668 372.374 115.759H372.097V133.273H363.021ZM371.906 104.636C371.906 106.582 372.175 108.28 372.715 109.729C373.255 111.178 374.036 112.307 375.059 113.116C376.082 113.912 377.325 114.31 378.788 114.31C380.265 114.31 381.515 113.905 382.538 113.095C383.56 112.271 384.335 111.135 384.86 109.686C385.4 108.223 385.67 106.54 385.67 104.636C385.67 102.747 385.407 101.085 384.881 99.6506C384.356 98.2159 383.582 97.0937 382.559 96.2841C381.536 95.4744 380.279 95.0696 378.788 95.0696C377.31 95.0696 376.06 95.4602 375.038 96.2415C374.029 97.0227 373.255 98.1307 372.715 99.5653C372.175 101 371.906 102.69 371.906 104.636ZM418.397 88.2727V95.0909H398.688V88.2727H418.397ZM403.163 80.4318H412.239V110.943C412.239 111.781 412.367 112.435 412.623 112.903C412.879 113.358 413.234 113.678 413.688 113.862C414.157 114.047 414.697 114.139 415.308 114.139C415.734 114.139 416.16 114.104 416.586 114.033C417.012 113.947 417.339 113.884 417.566 113.841L418.994 120.595C418.539 120.737 417.9 120.901 417.076 121.085C416.252 121.284 415.251 121.405 414.072 121.447C411.884 121.533 409.967 121.241 408.319 120.574C406.685 119.906 405.414 118.869 404.505 117.463C403.596 116.057 403.148 114.281 403.163 112.136V80.4318ZM460.137 77.3636L470.684 110.517H471.089L481.657 77.3636H491.884L476.842 121H464.952L449.888 77.3636H460.137ZM508.061 121.639C504.752 121.639 501.89 120.936 499.475 119.53C497.074 118.109 495.221 116.135 493.914 113.607C492.607 111.064 491.953 108.116 491.953 104.764C491.953 101.384 492.607 98.429 493.914 95.9006C495.221 93.358 497.074 91.3835 499.475 89.9773C501.89 88.5568 504.752 87.8466 508.061 87.8466C511.371 87.8466 514.226 88.5568 516.627 89.9773C519.042 91.3835 520.902 93.358 522.209 95.9006C523.516 98.429 524.169 101.384 524.169 104.764C524.169 108.116 523.516 111.064 522.209 113.607C520.902 116.135 519.042 118.109 516.627 119.53C514.226 120.936 511.371 121.639 508.061 121.639ZM508.104 114.608C509.61 114.608 510.867 114.182 511.875 113.33C512.884 112.463 513.644 111.284 514.155 109.793C514.681 108.301 514.944 106.604 514.944 104.7C514.944 102.797 514.681 101.099 514.155 99.608C513.644 98.1165 512.884 96.9375 511.875 96.071C510.867 95.2045 509.61 94.7713 508.104 94.7713C506.584 94.7713 505.306 95.2045 504.269 96.071C503.246 96.9375 502.472 98.1165 501.946 99.608C501.435 101.099 501.179 102.797 501.179 104.7C501.179 106.604 501.435 108.301 501.946 109.793C502.472 111.284 503.246 112.463 504.269 113.33C505.306 114.182 506.584 114.608 508.104 114.608ZM536.485 88.2727L542.493 99.7145L548.651 88.2727H557.962L548.48 104.636L558.218 121H548.949L542.493 109.686L536.144 121H526.769L536.485 104.636L527.11 88.2727H536.485Z" fill="black"/>
<mask id="mask0_0_1" style="mask-type:luminance" maskUnits="userSpaceOnUse" x="45" y="30" width="140" height="140">
<path d="M185 30H45V170H185V30Z" fill="white"/>
</mask>
<g mask="url(#mask0_0_1)">
<path d="M118.281 57.8306C131.41 62.1364 142.992 69.8229 152.062 79.8358C153.556 78.4981 155.328 77.7137 157.235 77.7137C157.795 77.7137 158.342 77.7948 158.874 77.9235C162.232 68.5521 163.425 58.4563 161.891 48.1913C161.883 48.1278 161.865 48.0679 161.856 48.0044C155.728 42.4806 148.62 38.0285 140.822 34.9299C132.496 41.1111 124.845 48.8117 118.281 57.8306Z" fill="#FF5722"/>
<path d="M86.536 54.2966C88.9365 54.071 91.3583 53.9141 93.8188 53.9141C100.055 53.9141 106.112 54.6544 111.925 56.0291C118.644 46.8851 126.489 39.1106 135.013 32.9188C128.673 31.0258 121.956 30 114.999 30C106.893 30 99.1152 31.3942 91.8747 33.9287C87.9848 39.1951 84.7699 44.9798 82.283 51.1381C84.1178 51.7779 85.6159 52.8689 86.536 54.2966Z" fill="#FF5722"/>
<path d="M78.7579 66.5251C78.43 66.6026 78.104 66.6661 77.7797 66.7189C77.0006 71.1358 76.5706 75.6726 76.5706 80.3134C76.5706 93.6787 79.9687 106.233 85.8873 117.23C87.1634 117.064 88.4888 117.064 89.8284 117.212C90.5404 103.406 93.9809 89.1031 100.479 75.2884C102.561 70.8609 104.891 66.652 107.419 62.6528C101.794 61.3714 95.9391 60.6946 89.9235 60.6946C88.8466 60.6946 87.7838 60.7563 86.7175 60.8039C85.3762 63.4212 82.468 65.642 78.7579 66.5251Z" fill="#FF5722"/>
<path d="M113.825 64.4312C111.4 68.3087 109.155 72.3802 107.144 76.6579C100.531 90.7159 97.0953 105.274 96.4731 119.304C99.0376 120.698 101.103 122.628 102.554 124.83C121.67 120.758 137.769 110.435 148.466 96.7314C147.918 95.0394 147.606 93.1658 147.606 91.1882C147.606 89.5861 147.818 88.0544 148.182 86.6303C138.978 76.4675 127.192 68.7035 113.825 64.4312Z" fill="#FF5722"/>
<path d="M75.3033 124.738C76.1317 122.778 77.4642 121.164 79.1139 119.921C73.227 108.942 69.8641 96.407 69.8641 83.0769C69.8641 77.324 70.5515 71.7403 71.7412 66.3452C70.1778 65.8411 68.8453 65.0162 67.883 63.9358C62.0702 65.6349 56.5252 67.9579 51.3522 70.8731C47.286 79.744 45 89.6036 45 100.001C45 105.976 45.7526 111.773 47.1609 117.307C55.4836 121.821 64.8691 124.845 74.8344 126.079C74.9631 125.628 75.1165 125.18 75.3033 124.738Z" fill="#FF5722"/>
<path d="M157.235 104.659C155.851 104.659 154.536 104.245 153.348 103.508C142.267 117.986 125.201 128.794 104.902 132.574C104.87 134.028 104.59 135.479 104.003 136.87C103.712 137.555 103.347 138.19 102.943 138.794C116.453 150.769 134.117 158.143 153.521 158.439C159.059 154.782 164.043 150.358 168.326 145.321C168.478 143.35 168.584 141.366 168.584 139.355C168.584 126.638 165.503 114.663 160.138 104.037C159.221 104.439 158.246 104.659 157.235 104.659Z" fill="#FF5722"/>
<path d="M98.2286 143.268C100.171 152.836 103.576 161.772 108.328 169.674C110.526 169.88 112.748 170 115.001 170C127.332 170 138.908 166.801 148.97 161.205C148.651 161.208 148.339 161.235 148.022 161.235C129.087 161.233 111.749 154.474 98.2286 143.268Z" fill="#FF5722"/>
<path d="M84.4596 143.097C79.5193 141.01 76.0682 137.032 74.8609 132.687C65.4595 130.985 56.6609 127.671 48.8934 123.023C57.0275 146.379 77.1786 164.097 101.942 168.772C97.4795 161.475 94.1994 153.265 92.1531 144.489C89.6521 144.611 87.0153 144.177 84.4596 143.097Z" fill="#FF5722"/>
<path d="M75.0319 50.8772C75.6893 50.7203 76.3432 50.6181 76.9883 50.5547C79.2532 45.6319 81.9939 40.9753 85.1841 36.6624C72.4991 42.6444 61.9063 52.3207 54.7856 64.3095C58.4552 62.2068 62.317 60.409 66.325 58.9091C66.8167 55.3505 70.266 52.0123 75.0319 50.8772Z" fill="#FF5722"/>
<path d="M185 100.001C185 81.2932 177.647 64.313 165.691 51.7549C165.954 52.9869 166.185 54.233 166.374 55.495C167.74 64.6461 166.936 73.665 164.368 82.1569C165.914 84.5469 166.865 87.7089 166.865 91.1881C166.865 94.1685 166.166 96.9146 164.993 99.146C169.772 109.295 172.475 120.614 172.475 132.576C172.475 135.259 172.326 137.904 172.063 140.52C180.197 129.081 185 115.106 185 100.001Z" fill="#FF5722"/>
<path d="M86.9405 137.218C91.0731 138.965 95.636 137.512 97.1321 133.973C98.6282 130.434 96.491 126.149 92.3584 124.402C88.2259 122.655 83.663 124.108 82.1669 127.647C80.6708 131.186 82.808 135.471 86.9405 137.218Z" fill="#FF5722"/>
<path d="M157.235 96.8952C159.487 96.8952 161.313 94.3393 161.313 91.1864C161.313 88.0335 159.487 85.4775 157.235 85.4775C154.982 85.4775 153.156 88.0335 153.156 91.1864C153.156 94.3393 154.982 96.8952 157.235 96.8952Z" fill="#FF5722"/>
<path d="M77.6862 62.0288C80.1461 61.4423 81.7849 59.4763 81.3465 57.6375C80.9081 55.7987 78.5586 54.7835 76.0987 55.37C73.6388 55.9565 72 57.9225 72.4384 59.7613C72.8768 61.6001 75.2263 62.6153 77.6862 62.0288Z" fill="#FF5722"/>
</g>
</svg>
